<mxfile host="app.diagrams.net" modified="2020-09-19T17:48:33.449Z" agent="5.0 (Windows NT 10.0; Win64; x64) AppleWebKit/537.36 (KHTML, like Gecko) Chrome/85.0.4183.102 Safari/537.36" etag="5DoRTMOt6mPv8bQu4FmY" version="13.7.3" type="github">
  <diagram id="BV5yPbYMLx-jaIS2bLUU" name="Page-1">
    <mxGraphModel dx="1422" dy="762" grid="1" gridSize="10" guides="1" tooltips="1" connect="1" arrows="1" fold="1" page="1" pageScale="1" pageWidth="827" pageHeight="1169" math="0" shadow="0">
      <root>
        <mxCell id="0" />
        <mxCell id="1" parent="0" />
        <mxCell id="4pg31EYbc-qrBDFphXHr-13" style="edgeStyle=orthogonalEdgeStyle;orthogonalLoop=1;jettySize=auto;html=1;exitX=0.5;exitY=1;exitDx=0;exitDy=0;shape=link;" parent="1" source="4pg31EYbc-qrBDFphXHr-5" target="4pg31EYbc-qrBDFphXHr-8" edge="1">
          <mxGeometry relative="1" as="geometry" />
        </mxCell>
        <mxCell id="4pg31EYbc-qrBDFphXHr-5" value="&lt;h1&gt;frontend&lt;/h1&gt;" style="whiteSpace=wrap;html=1;fillColor=#f8cecc;strokeColor=#b85450;strokeWidth=2;" parent="1" vertex="1">
          <mxGeometry x="10" y="10" width="120" height="60" as="geometry" />
        </mxCell>
        <mxCell id="4pg31EYbc-qrBDFphXHr-18" style="edgeStyle=orthogonalEdgeStyle;shape=link;orthogonalLoop=1;jettySize=auto;html=1;exitX=1;exitY=0.5;exitDx=0;exitDy=0;entryX=0;entryY=0.5;entryDx=0;entryDy=0;" parent="1" source="4pg31EYbc-qrBDFphXHr-8" target="4pg31EYbc-qrBDFphXHr-11" edge="1">
          <mxGeometry relative="1" as="geometry" />
        </mxCell>
        <mxCell id="4pg31EYbc-qrBDFphXHr-25" style="edgeStyle=orthogonalEdgeStyle;shape=link;orthogonalLoop=1;jettySize=auto;html=1;entryX=0.5;entryY=0;entryDx=0;entryDy=0;" parent="1" source="4pg31EYbc-qrBDFphXHr-8" target="4pg31EYbc-qrBDFphXHr-24" edge="1">
          <mxGeometry relative="1" as="geometry" />
        </mxCell>
        <mxCell id="4pg31EYbc-qrBDFphXHr-8" value="build" style="whiteSpace=wrap;html=1;strokeWidth=2;fillColor=#f8cecc;strokeColor=#b85450;" parent="1" vertex="1">
          <mxGeometry x="40" y="100" width="60" height="30" as="geometry" />
        </mxCell>
        <mxCell id="4pg31EYbc-qrBDFphXHr-20" style="edgeStyle=orthogonalEdgeStyle;shape=link;orthogonalLoop=1;jettySize=auto;html=1;exitX=1;exitY=0.5;exitDx=0;exitDy=0;entryX=0;entryY=0.5;entryDx=0;entryDy=0;" parent="1" source="4pg31EYbc-qrBDFphXHr-11" target="4pg31EYbc-qrBDFphXHr-16" edge="1">
          <mxGeometry relative="1" as="geometry" />
        </mxCell>
        <mxCell id="4pg31EYbc-qrBDFphXHr-11" value="css" style="whiteSpace=wrap;html=1;strokeWidth=2;fillColor=#dae8fc;strokeColor=#6c8ebf;" parent="1" vertex="1">
          <mxGeometry x="140" y="100" width="60" height="30" as="geometry" />
        </mxCell>
        <mxCell id="4pg31EYbc-qrBDFphXHr-22" style="edgeStyle=orthogonalEdgeStyle;shape=link;orthogonalLoop=1;jettySize=auto;html=1;exitX=1;exitY=0.5;exitDx=0;exitDy=0;entryX=0;entryY=0.5;entryDx=0;entryDy=0;" parent="1" source="4pg31EYbc-qrBDFphXHr-16" target="4pg31EYbc-qrBDFphXHr-17" edge="1">
          <mxGeometry relative="1" as="geometry" />
        </mxCell>
        <mxCell id="4pg31EYbc-qrBDFphXHr-16" value="es5" style="whiteSpace=wrap;html=1;strokeWidth=2;fillColor=#fff2cc;strokeColor=#d6b656;" parent="1" vertex="1">
          <mxGeometry x="230" y="100" width="60" height="30" as="geometry" />
        </mxCell>
        <mxCell id="4pg31EYbc-qrBDFphXHr-17" value="html" style="whiteSpace=wrap;html=1;strokeWidth=2;fillColor=#ffe6cc;strokeColor=#d79b00;" parent="1" vertex="1">
          <mxGeometry x="320" y="100" width="60" height="30" as="geometry" />
        </mxCell>
        <mxCell id="4pg31EYbc-qrBDFphXHr-28" style="edgeStyle=orthogonalEdgeStyle;shape=link;orthogonalLoop=1;jettySize=auto;html=1;exitX=1;exitY=0.5;exitDx=0;exitDy=0;entryX=0;entryY=0.5;entryDx=0;entryDy=0;" parent="1" source="4pg31EYbc-qrBDFphXHr-24" target="4pg31EYbc-qrBDFphXHr-26" edge="1">
          <mxGeometry relative="1" as="geometry" />
        </mxCell>
        <mxCell id="4pg31EYbc-qrBDFphXHr-24" value="src" style="whiteSpace=wrap;html=1;strokeWidth=2;fillColor=#dae8fc;strokeColor=#6c8ebf;" parent="1" vertex="1">
          <mxGeometry x="40" y="220" width="60" height="30" as="geometry" />
        </mxCell>
        <mxCell id="4pg31EYbc-qrBDFphXHr-36" style="edgeStyle=orthogonalEdgeStyle;shape=link;orthogonalLoop=1;jettySize=auto;html=1;exitX=1;exitY=0.5;exitDx=0;exitDy=0;entryX=0;entryY=0.5;entryDx=0;entryDy=0;" parent="1" source="4pg31EYbc-qrBDFphXHr-26" target="4pg31EYbc-qrBDFphXHr-34" edge="1">
          <mxGeometry relative="1" as="geometry" />
        </mxCell>
        <mxCell id="4pg31EYbc-qrBDFphXHr-37" style="edgeStyle=orthogonalEdgeStyle;shape=link;orthogonalLoop=1;jettySize=auto;html=1;exitX=0.5;exitY=1;exitDx=0;exitDy=0;entryX=0.5;entryY=0;entryDx=0;entryDy=0;" parent="1" source="4pg31EYbc-qrBDFphXHr-26" target="4pg31EYbc-qrBDFphXHr-29" edge="1">
          <mxGeometry relative="1" as="geometry" />
        </mxCell>
        <mxCell id="4pg31EYbc-qrBDFphXHr-26" value="assets" style="whiteSpace=wrap;html=1;strokeWidth=2;fillColor=#fff2cc;strokeColor=#d6b656;" parent="1" vertex="1">
          <mxGeometry x="140" y="220" width="60" height="30" as="geometry" />
        </mxCell>
        <mxCell id="4pg31EYbc-qrBDFphXHr-38" style="edgeStyle=orthogonalEdgeStyle;shape=link;orthogonalLoop=1;jettySize=auto;html=1;exitX=0.5;exitY=1;exitDx=0;exitDy=0;entryX=0.5;entryY=0;entryDx=0;entryDy=0;" parent="1" source="4pg31EYbc-qrBDFphXHr-29" target="4pg31EYbc-qrBDFphXHr-31" edge="1">
          <mxGeometry relative="1" as="geometry" />
        </mxCell>
        <mxCell id="4pg31EYbc-qrBDFphXHr-40" style="edgeStyle=orthogonalEdgeStyle;shape=link;orthogonalLoop=1;jettySize=auto;html=1;exitX=1;exitY=0.5;exitDx=0;exitDy=0;entryX=0;entryY=0.5;entryDx=0;entryDy=0;" parent="1" source="4pg31EYbc-qrBDFphXHr-29" target="4pg31EYbc-qrBDFphXHr-35" edge="1">
          <mxGeometry relative="1" as="geometry" />
        </mxCell>
        <mxCell id="4pg31EYbc-qrBDFphXHr-29" value="es6" style="whiteSpace=wrap;html=1;strokeWidth=2;fillColor=#fad7ac;strokeColor=#b46504;" parent="1" vertex="1">
          <mxGeometry x="140" y="290" width="60" height="30" as="geometry" />
        </mxCell>
        <mxCell id="4pg31EYbc-qrBDFphXHr-39" style="edgeStyle=orthogonalEdgeStyle;shape=link;orthogonalLoop=1;jettySize=auto;html=1;exitX=0.5;exitY=1;exitDx=0;exitDy=0;entryX=0.5;entryY=0;entryDx=0;entryDy=0;" parent="1" source="4pg31EYbc-qrBDFphXHr-31" target="4pg31EYbc-qrBDFphXHr-32" edge="1">
          <mxGeometry relative="1" as="geometry" />
        </mxCell>
        <mxCell id="4pg31EYbc-qrBDFphXHr-31" value="img" style="whiteSpace=wrap;html=1;strokeWidth=2;fillColor=#b0e3e6;strokeColor=#0e8088;" parent="1" vertex="1">
          <mxGeometry x="140" y="360" width="60" height="30" as="geometry" />
        </mxCell>
        <mxCell id="4pg31EYbc-qrBDFphXHr-32" value="scss" style="whiteSpace=wrap;html=1;strokeWidth=2;fillColor=#fad9d5;strokeColor=#ae4132;" parent="1" vertex="1">
          <mxGeometry x="140" y="430" width="60" height="30" as="geometry" />
        </mxCell>
        <mxCell id="4pg31EYbc-qrBDFphXHr-44" style="edgeStyle=orthogonalEdgeStyle;shape=link;orthogonalLoop=1;jettySize=auto;html=1;exitX=0.5;exitY=0;exitDx=0;exitDy=0;entryX=0.5;entryY=1;entryDx=0;entryDy=0;" parent="1" source="4pg31EYbc-qrBDFphXHr-41" target="4pg31EYbc-qrBDFphXHr-34" edge="1">
          <mxGeometry relative="1" as="geometry" />
        </mxCell>
        <mxCell id="4pg31EYbc-qrBDFphXHr-34" value="views" style="whiteSpace=wrap;html=1;strokeWidth=2;fillColor=#fff2cc;strokeColor=#d6b656;" parent="1" vertex="1">
          <mxGeometry x="340" y="220" width="60" height="30" as="geometry" />
        </mxCell>
        <mxCell id="4pg31EYbc-qrBDFphXHr-35" value="es6" style="whiteSpace=wrap;html=1;strokeWidth=2;fillColor=#fad7ac;strokeColor=#b46504;" parent="1" vertex="1">
          <mxGeometry x="250" y="290" width="60" height="30" as="geometry" />
        </mxCell>
        <mxCell id="4pg31EYbc-qrBDFphXHr-45" style="edgeStyle=orthogonalEdgeStyle;shape=link;orthogonalLoop=1;jettySize=auto;html=1;exitX=0.5;exitY=0;exitDx=0;exitDy=0;entryX=0.5;entryY=1;entryDx=0;entryDy=0;" parent="1" source="4pg31EYbc-qrBDFphXHr-42" target="4pg31EYbc-qrBDFphXHr-41" edge="1">
          <mxGeometry relative="1" as="geometry" />
        </mxCell>
        <mxCell id="4pg31EYbc-qrBDFphXHr-41" value="components" style="whiteSpace=wrap;html=1;strokeWidth=2;fillColor=#fff2cc;strokeColor=#d6b656;" parent="1" vertex="1">
          <mxGeometry x="340" y="290" width="70" height="30" as="geometry" />
        </mxCell>
        <mxCell id="4pg31EYbc-qrBDFphXHr-46" style="edgeStyle=orthogonalEdgeStyle;shape=link;orthogonalLoop=1;jettySize=auto;html=1;exitX=0.5;exitY=0;exitDx=0;exitDy=0;entryX=0.5;entryY=1;entryDx=0;entryDy=0;" parent="1" source="4pg31EYbc-qrBDFphXHr-43" target="4pg31EYbc-qrBDFphXHr-42" edge="1">
          <mxGeometry relative="1" as="geometry" />
        </mxCell>
        <mxCell id="4pg31EYbc-qrBDFphXHr-42" value="screen" style="whiteSpace=wrap;html=1;strokeWidth=2;fillColor=#fff2cc;strokeColor=#d6b656;" parent="1" vertex="1">
          <mxGeometry x="340" y="360" width="70" height="30" as="geometry" />
        </mxCell>
        <mxCell id="4pg31EYbc-qrBDFphXHr-43" value="templates" style="whiteSpace=wrap;html=1;strokeWidth=2;fillColor=#fff2cc;strokeColor=#d6b656;" parent="1" vertex="1">
          <mxGeometry x="340" y="430" width="70" height="30" as="geometry" />
        </mxCell>
      </root>
    </mxGraphModel>
  </diagram>
</mxfile>
